# xmcd
#
# Track frame offsets:
# 150
# 16911
# 32859
# 47971
# 63851
# 80220
# 97643
# 113101
# 126780
# 141256
# 157076
# 169894
# 183965
# 198432
# 214282
# 229552
# 243538
# 258888
# 274452
# 294352
#
# Disc length: 4169 seconds
#
#
# Revision: 0
# Processed by: cddbd v1.5.1PL2 Copyright (c) Steve Scherf et al.
# Submitted via: FreeRIP 2.90 
#
DISCID=23104714
DTITLE=Guilherme e Santiago - Só batidão
DYEAR=2005
DGENRE=Country
TTITLE0=Alô meu povo
TTITLE1=Aí é que eu to lá
TTITLE2=Pop star
TTITLE3=O casado e o solteiro
TTITLE4=Eu gosto de mulher
TTITLE5=A outra (misturinha)
TTITLE6=Vem brincar de amar
TTITLE7=Gosto de mulher meu amigo, de pinga
TTITLE8=Vem sambar com a gente
TTITLE9=Onde tem sanfona tem forró e  arrastapé
TTITLE10=Não adiantou ir pescar
TTITLE11=Peão não chora
TTITLE12=O som do povo
TTITLE13=Dois de setembro
TTITLE14=Pinga com limão
TTITLE15=Encontrei  uma paixão
TTITLE16=Loucuras de amor
TTITLE17=Se essa moda pega
TTITLE18=Azul
TTITLE19=Acorda pra vida
EXTD=
EXTT0=
EXTT1=
EXTT2=
EXTT3=
EXTT4=
EXTT5=
EXTT6=
EXTT7=
EXTT8=
EXTT9=
EXTT10=
EXTT11=
EXTT12=
EXTT13=
EXTT14=
EXTT15=
EXTT16=
EXTT17=
EXTT18=
EXTT19=
PLAYORDER=
